<svg
	viewBox="0 0 24 24"
	width="32"
	height="32"
	fill="#19191A"
	xmlns="http://www.w3.org/2000/svg"
>
	<path
		d="m 12,6.9 c 1.42,0 2.13,0.54 2.39,1.4 0.13,0.43 0.56,0.7 1.01,0.7 h 0.06 C 16.16,9 16.68,8.29 16.43,7.64 15.99,6.49 15.02,5.56 13.5,5.19 V 4.5 C 13.5,3.67 12.83,3 12,3 11.17,3 10.5,3.67 10.5,4.5 V 5.16 C 10.11,5.24 9.75,5.37 9.4,5.52 l 1.51,1.51 C 11.23,6.95 11.6,6.9 12,6.9 Z M 4.27,4.62 a 0.996,0.996 0 0 0 0,1.41 L 7,8.77 c 0,2.08 1.56,3.22 3.91,3.91 l 3.51,3.51 C 14.08,16.68 13.37,17.1 12,17.1 10.35,17.1 9.5,16.51 9.17,15.67 9.02,15.28 8.68,15 8.27,15 H 8.1 c -0.72,0 -1.24,0.74 -0.95,1.39 0.59,1.33 1.89,2.12 3.36,2.44 v 0.67 c 0,0.83 0.67,1.5 1.5,1.5 0.83,0 1.5,-0.67 1.5,-1.5 v -0.65 c 0.96,-0.18 1.83,-0.55 2.46,-1.12 l 1.51,1.51 a 0.99702056,0.99702056 0 1 0 1.41,-1.41 L 5.68,4.62 a 0.996,0.996 0 0 0 -1.41,0 z"
	/>
</svg>
