<svg
	viewBox="0 0 24 24"
	width="32"
	height="32"
	fill="#19191A"
	xmlns="http://www.w3.org/2000/svg"
>
	<path
		d="M 12.3,10.9 C 10.03,10.31 9.3,9.7 9.3,8.75 9.3,7.66 10.31,6.9 12,6.9 c 1.42,0 2.13,0.54 2.39,1.4 0.12,0.4 0.45,0.7 0.87,0.7 h 0.3 C 16.22,9 16.69,8.35 16.46,7.73 16.04,6.55 15.06,5.57 13.5,5.19 V 4.5 C 13.5,3.67 12.83,3 12,3 11.17,3 10.5,3.67 10.5,4.5 V 5.16 C 8.56,5.58 7,6.84 7,8.77 c 0,2.31 1.91,3.46 4.7,4.13 2.5,0.6 3,1.48 3,2.41 C 14.7,16 14.21,17.1 12,17.1 10.35,17.1 9.5,16.51 9.17,15.67 9.02,15.28 8.68,15 8.27,15 H 7.99 c -0.67,0 -1.14,0.68 -0.89,1.3 0.57,1.39 1.9,2.21 3.4,2.53 v 0.67 c 0,0.83 0.67,1.5 1.5,1.5 0.83,0 1.5,-0.67 1.5,-1.5 v -0.65 c 1.95,-0.37 3.5,-1.5 3.5,-3.55 0,-2.84 -2.43,-3.81 -4.7,-4.4 z"
	/>
</svg>
