<?xml version="1.0" encoding="UTF-8" standalone="no"?>
<!-- Generator: Adobe Illustrator 21.1.0, SVG Export Plug-In . SVG Version: 6.00 Build 0)  -->

<svg
  version="1.1"
  id="Layer_1"
  x="0px"
  y="0px"
  viewBox="0 0 48.599998 58.5"
  xml:space="preserve"
  width="48.599998"
  height="58.5"
  xmlns="http://www.w3.org/2000/svg"
  xmlns:svg="http://www.w3.org/2000/svg"
  xmlns:rdf="http://www.w3.org/1999/02/22-rdf-syntax-ns#"
  xmlns:cc="http://creativecommons.org/ns#"
  xmlns:dc="http://purl.org/dc/elements/1.1/"
>
  <defs id="defs45" />
  <style type="text/css" id="style2">
    .st0 {
      fill: #ffffff;
    }
    .st1 {
      fill: url(#Head_1_);
    }
    .st2 {
      fill: url(#path-3_2_);
    }
  </style>

  <title id="title7">Logotypes/bat/logo-dark@1x</title>
  <desc id="desc9">Created with Sketch.</desc>
  <g id="Branding" transform="translate(-0.600373,0.1)">
    <g id="logo_brave" transform="translate(-46,-42)">
      <g
        id="Logo_x2F_Logotypes_x2F_brave_x2F_logo-dark"
        transform="translate(46,42)"
      >
        <g
          id="Logotypes_x2F_brave_x2F_logo-dark"
          transform="translate(-3.910345)"
        >
          <g id="Group-5">
            <g id="Build-Icons_x2F_Release">
              <g id="Logo" transform="translate(4.510718)">
                <linearGradient
                  id="Head_1_"
                  gradientUnits="userSpaceOnUse"
                  x1="-507.00562"
                  y1="419.22171"
                  x2="-506.00562"
                  y2="419.22171"
                  gradientTransform="matrix(48.7978,0,0,-58.296,24740.74,24468.096)"
                >
                  <stop offset="0" style="stop-color: #ff5500" id="stop17" />
                  <stop
                    offset="0.4099"
                    style="stop-color: #ff5500"
                    id="stop19"
                  />
                  <stop
                    offset="0.582"
                    style="stop-color: #ff2000"
                    id="stop21"
                  />
                  <stop offset="1" style="stop-color: #ff2000" id="stop23" />
                </linearGradient>
                <path
                  id="Head"
                  class="st1"
                  d="m 47.1,14 1.3,-3.4 c 0,0 -1.7,-1.9 -3.8,-4 C 42.5,4.5 38.1,5.7 38.1,5.7 l -5,-5.8 h -8.8 -8.8 l -5,5.8 c 0,0 -4.4,-1.2 -6.5,0.9 -2.1,2.1 -3.8,4 -3.8,4 L 1.7,14 0,19 c 0,0 5,19.4 5.6,21.8 1.2,4.7 2,6.5 5.2,8.8 3.2,2.3 9.3,6.5 10.2,7.1 1,0.6 2.2,1.7 3.3,1.7 1.1,0 2.3,-1.1 3.3,-1.7 1,-0.6 7,-4.7 10.2,-7.1 C 41,47.2 41.9,45.4 43,40.8 43.6,38.4 48.6,19 48.6,19 Z"
                  style="fill: url(#Head_1_)"
                />
                <path
                  id="Face"
                  class="st0"
                  d="m 24.4,36.3 c 0.3,0 2.5,0.8 4.2,1.7 1.7,0.9 3,1.5 3.4,1.8 0.4,0.3 0.2,0.7 -0.2,1 -0.4,0.3 -5.2,4.1 -5.7,4.5 -0.5,0.4 -1.2,1.1 -1.6,1.1 -0.4,0 -1.2,-0.7 -1.6,-1.1 -0.5,-0.4 -5.3,-4.3 -5.7,-4.5 -0.4,-0.3 -0.6,-0.7 -0.2,-1 0.4,-0.3 1.6,-0.9 3.4,-1.8 1.5,-1 3.7,-1.7 4,-1.7 z m 0,-27.4 c 0.2,0 1.1,0.1 2.4,0.5 1.5,0.5 3,1.1 3.8,1.1 0.8,0 6.2,-1.1 6.2,-1.1 0,0 6.4,7.9 6.4,9.6 0,1.7 -0.8,2.1 -1.6,3 -0.8,0.9 -4.4,4.7 -4.8,5.2 -0.5,0.5 -1.4,1.2 -0.8,2.6 0.6,1.3 1.4,3.1 0.5,4.8 -0.9,1.7 -2.5,2.9 -3.5,2.7 -1,-0.2 -3.4,-1.5 -4.2,-2 -0.9,-0.6 -3.6,-2.9 -3.6,-3.8 0,-0.9 2.8,-2.5 3.4,-2.8 0.5,-0.4 2.9,-1.8 3,-2.3 0,-0.5 0,-0.7 -0.7,-2.1 -0.7,-1.4 -2,-3.2 -1.8,-4.4 0.2,-1.2 2.3,-1.8 3.7,-2.4 1.5,-0.6 4.3,-1.6 4.6,-1.8 0.4,-0.2 0.3,-0.3 -0.8,-0.4 -1.1,-0.1 -4.1,-0.5 -5.5,-0.1 -1.4,0.4 -3.7,1 -3.9,1.3 -0.2,0.3 -0.4,0.4 -0.2,1.5 0.2,1.1 1.2,6.3 1.3,7.2 0.1,0.9 0.3,1.5 -0.7,1.8 -1,0.2 -2.6,0.6 -3.2,0.6 -0.6,0 -2.2,-0.4 -3.2,-0.6 -1,-0.2 -0.8,-0.8 -0.7,-1.8 0.1,-0.9 1.1,-6.1 1.3,-7.2 0.2,-1.1 0,-1.1 -0.2,-1.4 -0.2,-0.3 -2.5,-0.9 -3.9,-1.3 -1.4,-0.4 -4.4,0 -5.5,0.1 -1.1,0.1 -1.2,0.3 -0.8,0.4 0.4,0.2 3.2,1.2 4.6,1.8 1.5,0.6 3.5,1.2 3.7,2.4 0.2,1.2 -1.1,3 -1.8,4.4 -0.7,1.4 -0.7,1.5 -0.7,2.1 0,0.5 2.4,1.9 3,2.3 0.5,0.4 3.4,2 3.4,2.8 0,0.9 -2.8,3.2 -3.6,3.8 -0.9,0.6 -3.2,1.8 -4.2,2 -1,0.2 -2.6,-1 -3.5,-2.7 C 11.4,33 12.2,31.2 12.8,29.9 13.4,28.6 12.4,27.8 12,27.3 11.5,26.8 8,23 7.2,22.1 6.4,21.2 5.6,20.8 5.6,19.1 5.6,17.4 12,9.5 12,9.5 c 0,0 5.4,1.1 6.2,1.1 0.8,0 2.3,-0.6 3.8,-1.1 1.3,-0.6 2.2,-0.6 2.4,-0.6 z"
                />
                <g id="Top-Head">
                  <linearGradient
                    id="path-3_2_"
                    gradientUnits="userSpaceOnUse"
                    x1="-504.81409"
                    y1="390.65729"
                    x2="-503.8356"
                    y2="390.65729"
                    gradientTransform="matrix(40.5021,0,0,-10.5044,20451.072,4108.8623)"
                  >
                    <stop offset="0" style="stop-color: #ff452a" id="stop28" />
                    <stop offset="1" style="stop-color: #ff2000" id="stop30" />
                  </linearGradient>
                  <path
                    id="path-3_1_"
                    class="st2"
                    d="M 38.2,5.8 33.2,0 h -8.8 -8.8 l -5,5.8 c 0,0 -4.4,-1.2 -6.5,0.9 0,0 5.9,-0.5 7.9,2.8 0,0 5.4,1.1 6.2,1.1 C 19,10.6 20.5,10 22,9.5 23.5,9 24.4,9 24.4,9 c 0,0 1,0 2.4,0.5 1.5,0.5 3,1.1 3.8,1.1 0.8,0 6.2,-1.1 6.2,-1.1 2,-3.3 7.9,-2.8 7.9,-2.8 C 42.6,4.5 38.2,5.8 38.2,5.8"
                    style="fill: url(#path-3_2_)"
                  />
                </g>
              </g>
            </g>
          </g>
        </g>
      </g>
    </g>
  </g>
  <metadata id="metadata1128">
    <rdf:RDF
      ><cc:Work rdf:about=""
        ><dc:title>Logotypes/bat/logo-dark@1x</dc:title></cc:Work
      ></rdf:RDF
    >
  </metadata>
</svg>
